# This file uses centimeters as units for non-parametric coordinates.

mtllib Pyramid.mtl
g default
v -5.258656 1.118404 0.038252
v 0.030595 1.118404 5.299506
v -0.083893 5.754143 -0.010137
v -0.010219 5.748865 0.083883
v 0.010219 5.754143 -0.083883
v 0.083893 5.748865 0.010137
v -0.030595 1.118404 -5.299506
v 5.258656 1.118404 -0.038252
v 0.009163 5.039205 0.990203
v -1.480004 4.529342 0.016776
v -0.009163 5.043058 -0.990203
v 1.480004 4.525487 -0.016776
v -0.001555 4.971343 0.970124
v -1.450028 4.469011 0.000688
v 0.001555 4.974724 -0.970124
v 1.450028 4.465630 -0.000688
v 0.005594 0.934810 -5.355993
v 5.314763 0.934810 -0.002426
v -0.005594 0.934810 5.355993
v -5.314763 0.934810 0.002426
v 0.036012 1.640035 4.713311
v -4.742946 1.572027 0.043435
v -0.036012 1.640493 -4.713311
v 4.742946 1.571569 -0.043435
v -0.073392 2.764125 3.493655
v -3.694417 2.509564 -0.053753
v 0.021486 2.716992 -3.536080
v 3.674701 2.552978 -0.000939
v 0.023176 3.449115 2.694077
v -3.025784 3.134323 -0.008200
v -0.043452 3.435410 -2.713852
v 2.965724 3.173037 -0.079069
v -0.063392 4.185681 1.885973
v -2.270214 3.754516 -0.050303
v 0.020216 4.150603 -1.923989
v 2.260827 3.768981 0.027984
vt 0.976286 0.532908
vt 0.730821 0.928297
vt 0.072434 0.392325
vt 0.932782 0.531461
vt 0.510260 0.499969
vt 0.506731 0.508694
vt 0.492271 0.486993
vt 0.503821 0.489009
vt 0.764619 0.164623
vt 0.349260 0.085024
vt 0.334649 0.043033
vt 0.796454 0.125103
vt 0.133651 0.100509
vt 0.329152 0.030934
vt 0.741580 0.935466
vt 0.989407 0.532033
vt 0.637784 0.513440
vt 0.548186 0.590703
vt 0.554367 0.428382
vt 0.445835 0.367881
vt 0.642051 0.513158
vt 0.553507 0.591844
vt 0.556079 0.424169
vt 0.444398 0.363980
vt 0.176648 0.423125
vt 0.842451 0.522513
vt 0.697375 0.244103
vt 0.378535 0.175800
vt 0.246643 0.432301
vt 0.782303 0.521377
vt 0.654763 0.302290
vt 0.402898 0.233573
vt 0.312868 0.451005
vt 0.717573 0.515029
vt 0.607629 0.356102
vt 0.417715 0.294402
vt 0.594658 0.656638
vt 0.391493 0.469123
vt 0.623717 0.723896
vt 0.659296 0.784637
vt 0.706190 0.883373
vt 0.110530 0.055306
vt 0.011843 0.376078
vt 0.065883 0.078439
vt 0.023096 0.381805
vt 0.395456 0.472920
vt 0.496053 0.497824
vt 0.485913 0.492805
vt 0.803570 0.114035
vt 0.090067 0.123349
vn -0.550699 0.624329 0.554025
vn -0.550699 0.624329 0.554025
vn -0.550699 0.624329 0.554025
vn -0.550699 0.624329 0.554025
vn 0.027228 0.999025 0.034749
vn 0.027228 0.999025 0.034749
vn 0.027228 0.999025 0.034749
vn 0.027228 0.999025 0.034749
vn 0.550728 0.624328 -0.553997
vn 0.550728 0.624328 -0.553997
vn 0.550728 0.624328 -0.553997
vn 0.550728 0.624328 -0.553997
vn 0.000000 -1.000000 0.000000
vn 0.000000 -1.000000 0.000000
vn 0.000000 -1.000000 0.000000
vn 0.000000 -1.000000 0.000000
vn 0.559086 0.623928 0.546020
vn 0.559086 0.623927 0.546020
vn 0.559086 0.623927 0.546020
vn 0.559086 0.623927 0.546020
vn -0.559288 0.623570 -0.546221
vn -0.559288 0.623570 -0.546221
vn -0.559288 0.623570 -0.546221
vn -0.559288 0.623570 -0.546221
vn -0.561080 0.647869 0.515223
vn -0.561080 0.647869 0.515223
vn -0.561080 0.647869 0.515223
vn -0.561080 0.647869 0.515223
vn -0.565772 0.646296 -0.512058
vn -0.565772 0.646296 -0.512058
vn -0.565772 0.646296 -0.512058
vn -0.565772 0.646296 -0.512058
vn 0.565263 0.648341 -0.510030
vn 0.565263 0.648341 -0.510031
vn 0.565263 0.648341 -0.510031
vn 0.565263 0.648341 -0.510031
vn 0.565594 0.646875 0.511524
vn 0.565594 0.646875 0.511524
vn 0.565594 0.646875 0.511524
vn 0.565594 0.646875 0.511524
vn -0.450247 -0.304452 0.839397
vn -0.450247 -0.304452 0.839397
vn -0.450247 -0.304452 0.839397
vn -0.450247 -0.304452 0.839397
vn -0.505378 -0.185987 -0.842616
vn -0.505378 -0.185987 -0.842616
vn -0.505378 -0.185987 -0.842616
vn -0.505378 -0.185987 -0.842616
vn 0.449138 -0.304455 -0.839990
vn 0.449138 -0.304455 -0.839990
vn 0.449138 -0.304455 -0.839990
vn 0.449138 -0.304455 -0.839990
vn 0.504940 -0.187225 0.842604
vn 0.504940 -0.187225 0.842604
vn 0.504940 -0.187225 0.842604
vn 0.504940 -0.187225 0.842604
vn 0.691468 0.212654 -0.690399
vn 0.691468 0.212654 -0.690399
vn 0.691468 0.212654 -0.690399
vn 0.691468 0.212654 -0.690399
vn 0.696079 0.210341 0.686463
vn 0.696079 0.210341 0.686463
vn 0.696079 0.210341 0.686463
vn 0.696079 0.210341 0.686463
vn -0.691468 0.212654 0.690399
vn -0.691468 0.212654 0.690399
vn -0.691468 0.212654 0.690399
vn -0.691468 0.212654 0.690399
vn -0.696079 0.210341 -0.686463
vn -0.696079 0.210341 -0.686463
vn -0.696079 0.210341 -0.686463
vn -0.696079 0.210341 -0.686463
vn -0.565296 0.611285 0.553868
vn -0.565296 0.611285 0.553869
vn -0.565296 0.611285 0.553868
vn -0.565296 0.611285 0.553869
vn -0.564807 0.608873 -0.557016
vn -0.564807 0.608873 -0.557016
vn -0.564807 0.608873 -0.557016
vn -0.564807 0.608873 -0.557016
vn 0.562118 0.608244 -0.560413
vn 0.562118 0.608244 -0.560413
vn 0.562118 0.608244 -0.560413
vn 0.562118 0.608244 -0.560413
vn 0.558241 0.620294 0.551001
vn 0.558241 0.620294 0.551001
vn 0.558241 0.620294 0.551001
vn 0.558241 0.620294 0.551001
vn -0.556806 0.634158 0.536480
vn -0.556806 0.634158 0.536480
vn -0.556806 0.634158 0.536480
vn -0.556806 0.634158 0.536480
vn -0.561153 0.612148 -0.557120
vn -0.561153 0.612148 -0.557120
vn -0.561153 0.612148 -0.557120
vn -0.561153 0.612148 -0.557120
vn 0.551252 0.625619 -0.552016
vn 0.551252 0.625619 -0.552016
vn 0.551252 0.625619 -0.552016
vn 0.551252 0.625619 -0.552016
vn 0.556174 0.627478 0.544923
vn 0.556174 0.627478 0.544923
vn 0.556174 0.627478 0.544923
vn 0.556174 0.627478 0.544923
vn -0.566956 0.619669 0.542745
vn -0.566956 0.619669 0.542745
vn -0.566956 0.619669 0.542745
vn -0.566956 0.619669 0.542745
vn -0.550928 0.638744 -0.537108
vn -0.550928 0.638744 -0.537108
vn -0.550928 0.638744 -0.537108
vn -0.550928 0.638744 -0.537108
vn 0.549613 0.637856 -0.539504
vn 0.549613 0.637856 -0.539504
vn 0.549613 0.637856 -0.539504
vn 0.549613 0.637856 -0.539504
vn 0.561985 0.621161 0.546198
vn 0.561985 0.621161 0.546198
vn 0.561985 0.621161 0.546198
vn 0.561985 0.621161 0.546198
vn -0.573422 0.635338 0.517236
vn -0.573422 0.635338 0.517236
vn -0.573422 0.635338 0.517236
vn -0.573422 0.635338 0.517236
vn -0.557662 0.637610 -0.531476
vn -0.557662 0.637610 -0.531476
vn -0.557662 0.637610 -0.531476
vn -0.557662 0.637610 -0.531476
vn 0.569489 0.631060 -0.526731
vn 0.569489 0.631060 -0.526731
vn 0.569489 0.631060 -0.526731
vn 0.569489 0.631060 -0.526731
vn 0.559144 0.627662 0.541663
vn 0.559144 0.627662 0.541663
vn 0.559144 0.627662 0.541663
vn 0.559144 0.627662 0.541663
s off
g Pyramid_mesh
usemtl blinn1SG
f 1/1/1 2/2/2 21/41/3 22/4/4
f 3/5/5 4/47/6 6/7/7 5/8/8
f 23/9/9 24/10/10 8/11/11 7/12/12
f 17/13/13 18/50/14 19/44/15 20/42/16
f 2/45/17 8/11/18 24/10/19 21/3/20
f 7/12/21 1/1/22 22/4/23 23/9/24
f 10/17/25 9/18/26 4/6/27 3/5/28
f 11/19/29 10/17/30 3/5/31 5/8/32
f 5/8/33 6/7/34 12/20/35 11/19/36
f 9/46/37 12/20/38 6/7/39 4/48/40
f 14/21/41 13/22/42 9/18/43 10/17/44
f 15/23/45 14/21/46 10/17/47 11/19/48
f 11/19/49 12/20/50 16/24/51 15/23/52
f 13/38/53 16/24/54 12/20/55 9/46/56
f 7/12/57 8/11/58 18/14/59 17/49/60
f 8/11/61 2/45/62 19/43/63 18/14/64
f 2/2/65 1/1/66 20/16/67 19/15/68
f 1/1/69 7/12/70 17/49/71 20/16/72
f 22/4/73 21/41/74 25/40/75 26/26/76
f 23/9/77 22/4/78 26/26/79 27/27/80
f 27/27/81 28/28/82 24/10/83 23/9/84
f 21/3/85 24/10/86 28/28/87 25/25/88
f 26/26/89 25/40/90 29/39/91 30/30/92
f 27/27/93 26/26/94 30/30/95 31/31/96
f 31/31/97 32/32/98 28/28/99 27/27/100
f 25/25/101 28/28/102 32/32/103 29/29/104
f 30/30/105 29/39/106 33/37/107 34/34/108
f 31/31/109 30/30/110 34/34/111 35/35/112
f 35/35/113 36/36/114 32/32/115 31/31/116
f 29/29/117 32/32/118 36/36/119 33/33/120
f 34/34/121 33/37/122 13/22/123 14/21/124
f 35/35/125 34/34/126 14/21/127 15/23/128
f 15/23/129 16/24/130 36/36/131 35/35/132
f 33/33/133 36/36/134 16/24/135 13/38/136
